#N canvas 177 238 1920 1136 10;
#X obj 253 148 bng 15 250 50 0 empty empty empty 0 -6 0 8 #fcfcfc #000000 #000000;
#X obj 475 383 dac~;
#X obj 253 167 t b b b b;
#X obj 291 229 del 30;
#X obj 272 330 throw~ body;
#X obj 254 444 throw~ body;
#X obj 291 269 throw~ body;
#X obj 311 208 throw~ body;
#X obj 474 203 catch~ body;
#X obj 492 224 r~ bodyfb;
#X obj 488 336 s~ bodyfb;
#X obj 474 290 *~ 0.1;
#X obj 253 351 del 150;
#X obj 253 372 switchclick 1 20 7000;
#X obj 311 188 switchclick 1 20 10000;
#X obj 291 249 switchclick 1 50 6000;
#X obj 272 310 switchclick 1 20 10000;
#X obj 254 395 lop~ 50;
#X obj 272 290 del 90;
#X obj 474 246 delwrite~ body 150;
#X obj 474 266 delread~ body 150;
#X obj 488 316 bp~ 1000 50;
#X obj 474 357 *~ 5;
#X connect 0 0 2 0;
#X connect 2 0 12 0;
#X connect 2 1 18 0;
#X connect 2 2 3 0;
#X connect 2 3 14 0;
#X connect 3 0 15 0;
#X connect 8 0 19 0;
#X connect 9 0 19 0;
#X connect 11 0 21 0;
#X connect 11 0 22 0;
#X connect 12 0 13 0;
#X connect 13 0 17 0;
#X connect 14 0 7 0;
#X connect 15 0 6 0;
#X connect 16 0 4 0;
#X connect 17 0 5 0;
#X connect 18 0 16 0;
#X connect 20 0 11 0;
#X connect 21 0 10 0;
#X connect 22 0 1 0;
#X connect 22 0 1 1;
