#N canvas 182 183 1920 1136 10;
#X obj 173 287 dac~;
#X obj 173 256 *~;
#X obj 173 168 vline~;
#X obj 173 190 *~;
#X msg 173 146 1 1 0 \, 0 20 2;
#X obj 189 212 noise~;
#X obj 189 234 bp~ 5000 12;
#X obj 162 91 bng 16 250 50 0 empty empty empty 0 -8 0 10 #fcfcfc #000000 #000000;
#X connect 1 0 0 0;
#X connect 1 0 0 1;
#X connect 2 0 3 0;
#X connect 2 0 3 1;
#X connect 3 0 1 0;
#X connect 4 0 2 0;
#X connect 5 0 6 0;
#X connect 6 0 1 1;
#X connect 7 0 4 0;
