#N canvas 389 22 1180 700 10;
#X obj 47 496 dac~;
#X obj 366 65 hsl 128 15 0 1 0 0 empty empty RM_Volume -2 -8 0 10 -262144
-1 -1 0 1;
#X obj 545 66 hsl 128 15 0 1 0 0 empty empty Mix/Depth -2 -8 0 10 -262144
-1 -1 0 1;
#X obj 559 89 r Channel-D;
#X obj 211 66 hsl 128 15 0.01 1 0 0 empty empty RM_Speed -2 -8 0 10
-262144 -1 -1 0 1;
#X obj 47 336 adc~;
#X obj 724 89 r Channel-E;
#X obj 724 135 r Channel-Push;
#X obj 554 179 sin ($f1 * 3.14159 / 2);
#X obj 542 153 cos ($f1 * 3.14159 / 2);
#X obj 84 361 *~ 1;
#X obj 123 401 *~ 1;
#X obj 194 400 *~ 1;
#X obj 50 67 hsl 128 15 0 1 0 0 empty empty Rage -2 -8 0 10 -262144
-1 -1 0 1;
#X obj 131 91 r Channel-A;
#X obj 252 87 r Channel-B;
#X obj 376 85 r Channel-C;
#X obj 727 63 hsl 128 15 0 1 0 0 empty empty unused -2 -8 0 10 -262144
-1 -1 0 1;
#X obj 542 119 * 1.57079;
#X obj 47 362 *~ 1;
#N canvas 230 84 730 832 lark 0;
#X obj 213 31 inlet;
#X obj 146 776 outlet~;
#X obj 99 33 inlet;
#X obj 213 53 * 5500;
#X obj 149 78 random 5500;
#X obj 99 125 metro 350;
#X obj 278 126 bng 15 250 50 0 empty empty empty 17 7 0 10 -262144
-1 -1;
#X obj 185 480 tgl 15 0 empty empty empty 17 7 0 10 -262144 -1 -1 0
1;
#X obj 433 157 random 50;
#X obj 346 514 metro 500;
#X obj 477 372 + 1;
#X obj 63 251 + 1;
#X obj 433 178 / 10;
#X obj 347 223 phasor~;
#X obj 346 537 f 0;
#X obj 379 536 + 1;
#X obj 336 389 sel 17;
#X msg 387 390 0;
#X obj 146 637 osc~;
#X obj 146 732 *~;
#X obj 433 222 phasor~;
#X msg 472 198 0;
#X obj 433 199 * -1;
#X obj 347 245 *~ 2;
#X obj 433 244 *~ 2;
#X obj 347 267 -~ 1;
#X obj 433 266 -~ 1;
#X obj 347 311 +~;
#X obj 347 289 clip~ 0 1;
#X obj 433 288 clip~ 0 1;
#X obj 476 443 /;
#X obj 146 414 line~;
#X obj 73 539 >= 1;
#X obj 73 584 line~;
#X obj 58 611 *~;
#X obj 211 207 metro 1;
#X obj 62 342 /;
#X obj 58 494 *~;
#X obj 425 530 random 17;
#X msg 425 600 set \$1;
#X msg 425 621 11;
#X obj 346 559 >=;
#X obj 346 580 change;
#X obj 346 603 sel 1;
#X obj 185 564 line~;
#X obj 146 706 *~;
#X msg 61 321 1000 \$1;
#X obj 146 391 pack 1 1;
#X obj 73 517 random 3;
#X obj 60 298 *;
#X obj 73 455 +~ 1;
#X obj 149 100 + 10;
#X obj 167 592 sel 1;
#X msg 167 614 0.75;
#X obj 476 418 *;
#X obj 477 350 random 2000;
#X obj 211 229 random 5000;
#X obj 211 251 / 5001;
#X obj 146 681 hip~ 500;
#X floatatom 504 421 5 0 0 0 - - -, f 5;
#X obj 63 229 random 100;
#X obj 63 273 / 20;
#X obj 72 391 pack 1 1;
#X obj 62 364 i;
#X obj 146 754 *~ 0.9;
#X msg 73 561 \$1 20;
#X obj 211 273 * 2;
#X obj 211 295 - 1;
#X obj 73 414 line~;
#X obj 477 394 / 90;
#X msg 346 493 bang;
#X msg 185 542 \$1 50;
#X obj 120 198 t b b b;
#X obj 425 576 / 1;
#X floatatom 87 344 5 0 0 0 - - -, f 5;
#X obj 476 463 + 1;
#X obj 63 152 t b b b b b b b b b b b b b b b;
#X text 269 82 Karl is a digital lark.;
#X obj 146 659 hip~ 500;
#X obj 146 367 + 100;
#X obj 146 345 random 7400;
#X obj 425 553 + 2;
#X obj 476 483 f;
#X obj 518 448 + 0.01;
#X obj 476 507 clip 1 23;
#X obj 210 184 t b f;
#X connect 0 0 3 0;
#X connect 2 0 5 0;
#X connect 2 0 9 0;
#X connect 2 0 7 0;
#X connect 3 0 4 1;
#X connect 4 0 51 0;
#X connect 5 0 4 0;
#X connect 5 0 76 0;
#X connect 5 0 7 0;
#X connect 5 0 6 0;
#X connect 7 0 71 0;
#X connect 7 0 52 0;
#X connect 8 0 12 0;
#X connect 9 0 14 0;
#X connect 9 0 8 0;
#X connect 10 0 69 0;
#X connect 11 0 61 0;
#X connect 12 0 13 0;
#X connect 12 0 22 0;
#X connect 13 0 23 0;
#X connect 14 0 15 0;
#X connect 14 0 16 0;
#X connect 14 0 41 0;
#X connect 14 0 72 0;
#X connect 15 0 14 1;
#X connect 16 0 17 0;
#X connect 16 0 38 0;
#X connect 16 0 55 0;
#X connect 17 0 14 0;
#X connect 18 0 78 0;
#X connect 19 0 64 0;
#X connect 20 0 24 0;
#X connect 21 0 20 1;
#X connect 21 0 13 1;
#X connect 22 0 20 0;
#X connect 23 0 25 0;
#X connect 24 0 26 0;
#X connect 25 0 28 0;
#X connect 26 0 29 0;
#X connect 27 0 19 1;
#X connect 28 0 27 0;
#X connect 29 0 27 1;
#X connect 30 0 75 0;
#X connect 31 0 37 0;
#X connect 32 0 65 0;
#X connect 33 0 34 1;
#X connect 34 0 18 0;
#X connect 35 0 56 0;
#X connect 36 0 63 0;
#X connect 36 0 74 0;
#X connect 37 0 34 0;
#X connect 38 0 81 0;
#X connect 38 0 83 0;
#X connect 39 0 40 0;
#X connect 40 0 31 1;
#X connect 40 0 47 1;
#X connect 41 0 42 0;
#X connect 42 0 43 0;
#X connect 43 0 55 0;
#X connect 44 0 45 1;
#X connect 45 0 19 0;
#X connect 46 0 36 0;
#X connect 47 0 31 0;
#X connect 48 0 32 0;
#X connect 49 0 46 0;
#X connect 50 0 37 1;
#X connect 51 0 5 1;
#X connect 52 0 53 0;
#X connect 53 0 18 1;
#X connect 54 0 30 0;
#X connect 54 0 59 0;
#X connect 54 0 9 1;
#X connect 54 0 70 0;
#X connect 55 0 10 0;
#X connect 56 0 57 0;
#X connect 57 0 66 0;
#X connect 58 0 45 0;
#X connect 60 0 11 0;
#X connect 61 0 49 0;
#X connect 61 0 49 1;
#X connect 62 0 68 0;
#X connect 63 0 62 1;
#X connect 64 0 1 0;
#X connect 65 0 33 0;
#X connect 66 0 67 0;
#X connect 67 0 62 0;
#X connect 68 0 50 0;
#X connect 69 0 54 0;
#X connect 69 0 54 1;
#X connect 70 0 9 0;
#X connect 71 0 44 0;
#X connect 72 0 60 0;
#X connect 72 1 48 0;
#X connect 72 2 80 0;
#X connect 73 0 39 0;
#X connect 74 0 85 0;
#X connect 75 0 82 0;
#X connect 76 0 60 0;
#X connect 76 1 80 0;
#X connect 76 2 17 0;
#X connect 76 3 38 0;
#X connect 76 4 55 0;
#X connect 76 5 21 0;
#X connect 76 7 35 0;
#X connect 78 0 58 0;
#X connect 79 0 47 0;
#X connect 80 0 79 0;
#X connect 81 0 16 1;
#X connect 81 0 41 1;
#X connect 81 0 73 0;
#X connect 82 0 84 0;
#X connect 83 0 30 1;
#X connect 84 0 38 1;
#X connect 85 0 35 0;
#X connect 85 1 35 1;
#X coords 0 832 1 831 85 60 0;
#X restore 123 288 pd lark;
#X obj 47 95 + 0.00666;
#X obj 48 132 * 3;
#X obj 123 162 tgl 35 0 empty empty empty 17 7 0 10 -262144 -1 -1 0
1;
#X obj 208 163 exp;
#X obj 209 141 * 8;
#X obj 209 185 - 1;
#X obj 208 119 + 1e-05;
#X obj 209 207 osc~;
#X obj 377 180 sin ($f1 * 3.14159 / 2);
#X obj 123 361 *~ 1;
#X obj 194 337 *~;
#X obj 194 360 *~ 0;
#X obj 123 310 *~ 1;
#X obj 363 121 * 1.57079;
#X obj 365 154 cos ($f1 * 3.14159 / 2);
#X text 313 369 Karl is a bird generator \, inspired by a lark. By
jayrope May 2016 - kliklak.net/jayrope/;
#X obj 123 420 *~ 0.1;
#X obj 194 420 *~ 0.1;
#X msg 549 291 0;
#X obj 549 245 loadbang;
#X obj 549 269 delay 500;
#X obj 724 157 sel 1;
#X connect 1 0 34 0;
#X connect 2 0 18 0;
#X connect 3 0 18 0;
#X connect 4 0 27 0;
#X connect 5 0 19 0;
#X connect 5 1 10 0;
#X connect 7 0 42 0;
#X connect 8 0 11 1;
#X connect 8 0 12 1;
#X connect 9 0 10 1;
#X connect 9 0 19 1;
#X connect 10 0 0 1;
#X connect 11 0 37 0;
#X connect 12 0 38 0;
#X connect 13 0 21 0;
#X connect 14 0 21 0;
#X connect 15 0 27 0;
#X connect 16 0 34 0;
#X connect 18 0 8 0;
#X connect 18 0 9 0;
#X connect 19 0 0 0;
#X connect 20 0 33 0;
#X connect 21 0 22 0;
#X connect 22 0 20 1;
#X connect 23 0 20 0;
#X connect 24 0 26 0;
#X connect 25 0 24 0;
#X connect 26 0 28 0;
#X connect 27 0 25 0;
#X connect 28 0 31 1;
#X connect 29 0 32 1;
#X connect 30 0 11 0;
#X connect 30 0 12 0;
#X connect 31 0 32 0;
#X connect 32 0 11 0;
#X connect 32 0 12 0;
#X connect 33 0 30 0;
#X connect 33 0 31 0;
#X connect 34 0 29 0;
#X connect 34 0 35 0;
#X connect 35 0 30 1;
#X connect 37 0 0 0;
#X connect 38 0 0 1;
#X connect 39 0 23 0;
#X connect 40 0 41 0;
#X connect 41 0 39 0;
#X connect 42 0 23 0;
